<?xml version="1.0" standalone="no"?>
<!DOCTYPE svg PUBLIC "-//W3C//DTD SVG 20010904//EN"
 "http://www.w3.org/TR/2001/REC-SVG-20010904/DTD/svg10.dtd">
<svg version="1.0" xmlns="http://www.w3.org/2000/svg"
 width="36.000000pt" height="36.000000pt" viewBox="0 0 36.000000 36.000000"
 preserveAspectRatio="xMidYMid meet">

<g transform="translate(0.000000,36.000000) scale(0.100000,-0.100000)"
fill="#000000" stroke="none">
<path d="M205 350 c-12 -19 6 -30 48 -30 l41 0 -67 -68 c-37 -37 -67 -73 -67
-80 0 -26 28 -9 90 53 35 36 68 65 72 65 4 0 8 -21 8 -46 0 -32 4 -44 13 -41
8 2 12 27 12 78 l0 74 -72 3 c-42 2 -74 -1 -78 -8z"/>
<path d="M4 307 c-2 -7 -3 -78 -2 -157 l3 -145 158 -3 158 -3 -3 78 c-4 93
-22 104 -26 15 l-3 -62 -124 0 -125 0 0 130 0 130 60 0 c47 0 60 3 60 15 0 20
-148 22 -156 2z"/>
</g>
</svg>
